<svg width="49" height="44" viewBox="0 0 49 44" fill="none" xmlns="http://www.w3.org/2000/svg">
<g id="OBJECTS" clip-path="url(#clip0_5_52)" filter="url(#filter0_d_5_52)">
<path id="Vector" d="M35.7326 14.9208C32.6119 14.4747 29.4277 14.7772 26.4521 15.8023C23.4765 16.8275 20.7981 18.5449 18.6458 20.8076C18.3155 21.15 18.0724 21.5643 17.9364 22.0166C17.8005 22.4689 17.7755 22.9463 17.8636 23.4099C17.9517 23.8735 18.1504 24.31 18.4433 24.6837C18.7362 25.0575 19.1151 25.3578 19.549 25.5602C20.1372 25.8345 20.7993 25.9173 21.4388 25.7966C22.0783 25.6759 22.6619 25.3581 23.1046 24.8893C24.5878 23.3448 26.4292 22.175 28.4721 21.4796C30.515 20.7843 32.6988 20.5839 34.8375 20.8955C35.4889 20.9858 36.1525 20.8666 36.729 20.5555C37.3055 20.2445 37.7638 19.7584 38.0352 19.1702C38.24 18.7477 38.3412 18.2839 38.3305 17.8161C38.3199 17.3483 38.1977 16.8894 37.9739 16.4763C37.75 16.0632 37.4307 15.7073 37.0414 15.4372C36.6522 15.167 36.2039 14.9902 35.7326 14.9208Z" fill="white"/>
<path id="Vector_2" d="M42.8275 1.44584C35.8475 -0.623451 28.3786 -0.46372 21.4971 1.90201C14.6156 4.26774 8.67687 8.71728 4.53693 14.6094C4.28796 14.9652 4.12026 15.3696 4.04534 15.795C3.97042 16.2204 3.99005 16.6566 4.10287 17.0738C4.21569 17.4911 4.41904 17.8794 4.699 18.2123C4.97896 18.5452 5.3289 18.8148 5.72487 19.0025C6.37918 19.3093 7.12342 19.3774 7.82418 19.1944C8.52495 19.0114 9.13643 18.5895 9.54904 18.0041C12.9578 13.1572 17.8463 9.49813 23.5099 7.5544C29.1734 5.61067 35.3194 5.48268 41.0618 7.1889C41.7603 7.39042 42.5091 7.34016 43.173 7.0472C43.837 6.75425 44.3724 6.2379 44.6826 5.59139C44.8701 5.2034 44.9704 4.78037 44.9768 4.35098C44.9832 3.92158 44.8954 3.49587 44.7195 3.10269C44.5435 2.70952 44.2835 2.35808 43.9571 2.07221C43.6306 1.78634 43.2454 1.57272 42.8275 1.44584Z" fill="white"/>
<path id="Vector_3" d="M35.9765 30.8959C36.2328 31.6117 36.2671 32.386 36.0749 33.1208C35.8827 33.8556 35.4728 34.518 34.897 35.024C34.3212 35.5301 33.6055 35.8571 32.8403 35.9636C32.0751 36.0701 31.295 35.9513 30.5986 35.6224C29.9022 35.2934 29.3209 34.769 28.9282 34.1156C28.5355 33.4622 28.3492 32.7091 28.3927 31.9516C28.4362 31.1941 28.7077 30.4664 29.1727 29.8604C29.6377 29.2545 30.2754 28.7976 31.0051 28.5476C31.4885 28.3808 32.0008 28.3093 32.5124 28.3371C33.0241 28.3649 33.5251 28.4915 33.9869 28.7096C34.4487 28.9278 34.8621 29.2331 35.2035 29.6083C35.5449 29.9834 35.8076 30.421 35.9765 30.8959Z" fill="white"/>
</g>
<defs>
<filter id="filter0_d_5_52" x="0" y="0" width="49" height="44" filterUnits="userSpaceOnUse" color-interpolation-filters="sRGB">
<feFlood flood-opacity="0" result="BackgroundImageFix"/>
<feColorMatrix in="SourceAlpha" type="matrix" values="0 0 0 0 0 0 0 0 0 0 0 0 0 0 0 0 0 0 127 0" result="hardAlpha"/>
<feOffset dy="4"/>
<feGaussianBlur stdDeviation="2"/>
<feComposite in2="hardAlpha" operator="out"/>
<feColorMatrix type="matrix" values="0 0 0 0 0 0 0 0 0 0 0 0 0 0 0 0 0 0 0.25 0"/>
<feBlend mode="normal" in2="BackgroundImageFix" result="effect1_dropShadow_5_52"/>
<feBlend mode="normal" in="SourceGraphic" in2="effect1_dropShadow_5_52" result="shape"/>
</filter>
<clipPath id="clip0_5_52">
<rect width="41" height="36" fill="white" transform="translate(4)"/>
</clipPath>
</defs>
</svg>
